<mxfile host="www.draw.io" modified="2020-01-27T22:32:17.069Z" agent="Mozilla/5.0 (Windows NT 10.0; Win64; x64) AppleWebKit/537.36 (KHTML, like Gecko) Chrome/79.0.3945.130 Safari/537.36" etag="4yKoKB6HUA3XYjtA33Lc" version="12.5.8" type="github">
  <diagram id="Ob-jkhG-rPBSQCunL5r1" name="Page-1">
    <mxGraphModel dx="1264" dy="533" grid="1" gridSize="10" guides="1" tooltips="1" connect="1" arrows="1" fold="1" page="1" pageScale="1" pageWidth="827" pageHeight="1169" math="0" shadow="0">
      <root>
        <mxCell id="0"/>
        <mxCell id="1" parent="0"/>
        <mxCell id="TRBahTDJeuBl8Zb0QJSd-14" value="clicking on add new contact button" style="rounded=1;whiteSpace=wrap;html=1;arcSize=40;fontColor=#000000;fillColor=#ffffc0;strokeColor=#ff0000;" vertex="1" parent="1">
          <mxGeometry x="140" y="270" width="120" height="40" as="geometry"/>
        </mxCell>
        <mxCell id="TRBahTDJeuBl8Zb0QJSd-15" value="" style="edgeStyle=orthogonalEdgeStyle;html=1;verticalAlign=bottom;endArrow=open;endSize=8;strokeColor=#ff0000;" edge="1" parent="1" source="TRBahTDJeuBl8Zb0QJSd-14" target="TRBahTDJeuBl8Zb0QJSd-16">
          <mxGeometry relative="1" as="geometry">
            <mxPoint x="200" y="370" as="targetPoint"/>
          </mxGeometry>
        </mxCell>
        <mxCell id="TRBahTDJeuBl8Zb0QJSd-16" value="" style="ellipse;html=1;shape=startState;fillColor=#000000;strokeColor=#ff0000;" vertex="1" parent="1">
          <mxGeometry x="185" y="355" width="30" height="30" as="geometry"/>
        </mxCell>
        <mxCell id="TRBahTDJeuBl8Zb0QJSd-17" value="" style="edgeStyle=orthogonalEdgeStyle;html=1;verticalAlign=bottom;endArrow=open;endSize=8;strokeColor=#ff0000;" edge="1" parent="1" source="TRBahTDJeuBl8Zb0QJSd-16">
          <mxGeometry relative="1" as="geometry">
            <mxPoint x="200" y="445" as="targetPoint"/>
          </mxGeometry>
        </mxCell>
        <mxCell id="TRBahTDJeuBl8Zb0QJSd-18" value="get contact info" style="rounded=1;whiteSpace=wrap;html=1;arcSize=40;fontColor=#000000;fillColor=#ffffc0;strokeColor=#ff0000;" vertex="1" parent="1">
          <mxGeometry x="140" y="440" width="120" height="40" as="geometry"/>
        </mxCell>
        <mxCell id="TRBahTDJeuBl8Zb0QJSd-19" value="" style="edgeStyle=orthogonalEdgeStyle;html=1;verticalAlign=bottom;endArrow=open;endSize=8;strokeColor=#ff0000;" edge="1" parent="1" source="TRBahTDJeuBl8Zb0QJSd-18">
          <mxGeometry relative="1" as="geometry">
            <mxPoint x="200" y="540" as="targetPoint"/>
          </mxGeometry>
        </mxCell>
        <mxCell id="TRBahTDJeuBl8Zb0QJSd-20" value="already existing" style="rhombus;whiteSpace=wrap;html=1;fillColor=#ffffc0;strokeColor=#ff0000;" vertex="1" parent="1">
          <mxGeometry x="160" y="540" width="80" height="40" as="geometry"/>
        </mxCell>
        <mxCell id="TRBahTDJeuBl8Zb0QJSd-21" value="yes" style="edgeStyle=orthogonalEdgeStyle;html=1;align=left;verticalAlign=bottom;endArrow=open;endSize=8;strokeColor=#ff0000;entryX=0.5;entryY=0;entryDx=0;entryDy=0;" edge="1" parent="1" source="TRBahTDJeuBl8Zb0QJSd-20" target="TRBahTDJeuBl8Zb0QJSd-26">
          <mxGeometry x="-1" relative="1" as="geometry">
            <mxPoint x="340" y="560" as="targetPoint"/>
          </mxGeometry>
        </mxCell>
        <mxCell id="TRBahTDJeuBl8Zb0QJSd-22" value="no&lt;br&gt;" style="edgeStyle=orthogonalEdgeStyle;html=1;align=left;verticalAlign=top;endArrow=open;endSize=8;strokeColor=#ff0000;" edge="1" parent="1" source="TRBahTDJeuBl8Zb0QJSd-20">
          <mxGeometry x="-1" relative="1" as="geometry">
            <mxPoint x="200" y="640" as="targetPoint"/>
          </mxGeometry>
        </mxCell>
        <mxCell id="TRBahTDJeuBl8Zb0QJSd-23" value="new contact created successfully" style="rounded=1;whiteSpace=wrap;html=1;arcSize=40;fontColor=#000000;fillColor=#ffffc0;strokeColor=#ff0000;" vertex="1" parent="1">
          <mxGeometry x="140" y="640" width="120" height="40" as="geometry"/>
        </mxCell>
        <mxCell id="TRBahTDJeuBl8Zb0QJSd-24" value="" style="edgeStyle=orthogonalEdgeStyle;html=1;verticalAlign=bottom;endArrow=open;endSize=8;strokeColor=#ff0000;" edge="1" parent="1" source="TRBahTDJeuBl8Zb0QJSd-23" target="TRBahTDJeuBl8Zb0QJSd-25">
          <mxGeometry relative="1" as="geometry">
            <mxPoint x="200" y="740" as="targetPoint"/>
          </mxGeometry>
        </mxCell>
        <mxCell id="TRBahTDJeuBl8Zb0QJSd-25" value="" style="ellipse;html=1;shape=endState;fillColor=#000000;strokeColor=#ff0000;" vertex="1" parent="1">
          <mxGeometry x="185" y="770" width="30" height="30" as="geometry"/>
        </mxCell>
        <mxCell id="TRBahTDJeuBl8Zb0QJSd-26" value="msg &quot;already existing&quot;" style="rounded=1;whiteSpace=wrap;html=1;arcSize=40;fontColor=#000000;fillColor=#ffffc0;strokeColor=#ff0000;" vertex="1" parent="1">
          <mxGeometry x="290" y="640" width="120" height="40" as="geometry"/>
        </mxCell>
        <mxCell id="TRBahTDJeuBl8Zb0QJSd-27" value="" style="edgeStyle=orthogonalEdgeStyle;html=1;verticalAlign=bottom;endArrow=open;endSize=8;strokeColor=#ff0000;entryX=1;entryY=0.5;entryDx=0;entryDy=0;" edge="1" parent="1" source="TRBahTDJeuBl8Zb0QJSd-26" target="TRBahTDJeuBl8Zb0QJSd-25">
          <mxGeometry relative="1" as="geometry">
            <mxPoint x="290" y="890" as="targetPoint"/>
            <Array as="points">
              <mxPoint x="350" y="785"/>
            </Array>
          </mxGeometry>
        </mxCell>
      </root>
    </mxGraphModel>
  </diagram>
</mxfile>
